<?xml version="1.0" standalone="no"?><!DOCTYPE svg PUBLIC "-//W3C//DTD SVG 1.1//EN" "http://www.w3.org/Graphics/SVG/1.1/DTD/svg11.dtd"><svg t="1711799230644" class="icon" viewBox="0 0 1024 1024" version="1.1" xmlns="http://www.w3.org/2000/svg" p-id="50055" xmlns:xlink="http://www.w3.org/1999/xlink" width="200" height="200"><path d="M775.58 538L770 588.3l-3.78 33.88H291.68L288 588.3 282.3 538a261.02 261.02 0 0 1 19.5-131.5 260.82 260.82 0 0 0 20.76-115.74l-2.94-58.64a209.6 209.6 0 0 1 418.66-20.92c0.34 6.96 0.34 14 0 20.9l-2.94 58.64a260.82 260.82 0 0 0 20.76 115.74 260.56 260.56 0 0 1 19.48 131.52z" fill="#8F4D2E" p-id="50056"></path><path d="M775.58 538L770 588.3h-190.2v-186.44L613.68 334V198.48a186.6 186.6 0 0 0-137.14-179.84 209.82 209.82 0 0 1 261.74 213.46l-2.94 58.64a260.82 260.82 0 0 0 20.76 115.74 260.56 260.56 0 0 1 19.48 131.52z" fill="#82462A" p-id="50057"></path><path d="M620.46 554.4a23.72 23.72 0 0 1-23.72-23.7v-112h-135.58v111.86a23.74 23.74 0 0 1-23.7 23.74h-27.14V656h237.26v-101.6z" fill="#FFD6CF" p-id="50058"></path><path d="M539.16 503.56a93.08 93.08 0 0 0 57.58-20.78v-64h-135.58v64a92.96 92.96 0 0 0 57.56 20.8z" fill="#FFC1B6" p-id="50059"></path><path d="M681.48 232.38v84.74a152.54 152.54 0 1 1-305.06 0v-84.74a230 230 0 0 0 78.16-88.56l6.58-13.14 9.62 8a422.3 422.3 0 0 0 142.9 78.18 425.62 425.62 0 0 0 67.8 15.52z" fill="#FFE9E5" p-id="50060"></path><path d="M681.48 232.38v84.74A152.62 152.62 0 0 1 558 466.88 185.74 185.74 0 0 0 613.68 334v-117.1a425.62 425.62 0 0 0 67.8 15.48z" fill="#FFD6CF" p-id="50061"></path><path d="M444.2 622.18h169.48v118.64H444.2z" fill="#FFFFFF" p-id="50062"></path><path d="M874.2 994.36a51.48 51.48 0 0 1-57.14-34.14l-112-210a132 132 0 0 1-23.64 126.2V1012h-305v-135.58a132.2 132.2 0 0 1-23.4-127.78l-113.76 211.58A51.42 51.42 0 0 1 141.62 928L266 618.18a101.62 101.62 0 0 1 94.36-63.78h66.84l101.68 186.42 101.7-186.42h66.58a101.78 101.78 0 0 1 94.5 64.12L914.74 928a51.48 51.48 0 0 1-33.34 64.68 55.52 55.52 0 0 1-7.2 1.68z" fill="#FF9494" p-id="50063"></path><path d="M126.92 933.64l12.22-158.92h101.68V938a57.04 57.04 0 0 1-114 0q-0.08-2.16 0.1-4.36z" fill="#FF9494" p-id="50064"></path><path d="M179.02 527.5a32.94 32.94 0 0 0-21.5 46.72l15.52 31.02H112.3a101.72 101.72 0 0 1-45.48-10.74L50 586a20.34 20.34 0 0 0-29.44 18.2V652a34 34 0 0 0 18.74 30.32l27.58 13.8a101.72 101.72 0 0 0 45.48 10.74h128.52v-101.62l-23.2-58a32.94 32.94 0 0 0-38.6-19.72z" fill="#FFE9E5" p-id="50065"></path><path d="M139.14 706.94h101.68v67.78H139.14z" fill="#FF9494" p-id="50066"></path><path d="M874.2 994.36a51.48 51.48 0 0 1-57.14-34.14l-112-210a132 132 0 0 1-23.64 126.2V1012H382c139.9-91.36 258-207.28 356.98-448.62a101.6 101.6 0 0 1 52.76 55.14L914.74 928a51.48 51.48 0 0 1-33.34 64.68 55.52 55.52 0 0 1-7.2 1.68z" fill="#FF9494" opacity=".25" p-id="50067"></path><path d="M766.22 944.2l-169.48-33.88V673.04l169.48 34z" fill="#A36548" p-id="50068"></path><path d="M834 944.2l169.48-33.88V673.04l-169.48 34z" fill="#8F4D2E" p-id="50069"></path><path d="M766.22 706.94H834V944.2h-67.8z" fill="#95573A" p-id="50070"></path><path d="M800.12 706.94A60 60 0 0 0 750 647.72l-153.22-25.54v50.86l169.48 34h33.9a60 60 0 0 1 50.16-59.22l153.22-25.54v50.86l-169.48 34z" fill="#D4BD81" p-id="50071"></path><path d="M972.38 942.6L904.6 954a16.96 16.96 0 0 1-19.5-14 16.32 16.32 0 0 1-0.24-2.78v-63a22 22 0 0 1 18.44-21.76l57.56-9.6a22 22 0 0 1 25.7 21.76v61.3a16.98 16.98 0 0 1-14.18 16.68z" fill="#FFE9E5" p-id="50072"></path><path d="M528.94 386.52c-17.7 0-34.18-6-45.22-16.3a17.02 17.02 0 1 1 23.3-24.8c3.64 3.42 11.32 7.08 22 7.08s18.3-3.66 22-7.08a17.02 17.02 0 1 1 23.3 24.8c-11.04 10.36-27.52 16.3-45.24 16.3z" fill="#FFC1B6" p-id="50073"></path></svg>