<?xml version="1.0" standalone="no"?><!DOCTYPE svg PUBLIC "-//W3C//DTD SVG 1.1//EN" "http://www.w3.org/Graphics/SVG/1.1/DTD/svg11.dtd"><svg t="1711799138629" class="icon" viewBox="0 0 1024 1024" version="1.1" xmlns="http://www.w3.org/2000/svg" p-id="44810" xmlns:xlink="http://www.w3.org/1999/xlink" width="200" height="200"><path d="M465.606228 862.815993h-2.457192A75.319789 75.319789 0 0 1 388.477673 795.516209h-0.614298a169.000269 169.000269 0 0 0-169.000269 169.000269v1.399235a563.618627 563.618627 0 0 0 259.950534 58.017055 599.862223 599.862223 0 0 0 233.092052-46.925559v-12.35422a169.000269 169.000269 0 0 0-169.205035-169.000269h-2.2183a75.319789 75.319789 0 0 1-74.876129 67.299784" fill="#3390FF" p-id="44811"></path><path d="M464.684781 796.164635c43.785813 0 79.2786-53.921734 79.2786-10.238303a79.2786 79.2786 0 1 1-158.557199 0.068255c0-43.785813 35.492787 10.170048 79.278599 10.170048z" fill="#F1CDC2" p-id="44812"></path><path d="M172.756611 517.1026a281.246207 281.246207 0 1 0 281.246206-281.212079 281.246207 281.246207 0 0 0-281.246206 281.212079" fill="#FFE2CC" p-id="44813"></path><path d="M291.862212 539.934018a37.199171 37.199171 0 0 0 16.551925 31.499848 30.476018 30.476018 0 0 0 33.069721 0 38.291256 38.291256 0 0 0 0-63.033824 30.476018 30.476018 0 0 0-33.069721 0 37.199171 37.199171 0 0 0-16.551925 31.499848" p-id="44814"></path><path d="M536.694185 539.968145a33.24036 33.24036 0 1 0 33.069721-36.380106 34.844361 34.844361 0 0 0-33.069721 36.380106" p-id="44815"></path><path d="M549.935725 556.451814a6.62077 6.62077 0 1 0 3.412768-5.73345 6.62077 6.62077 0 0 0-3.412768 5.73345" fill="#FFFFFF" p-id="44816"></path><path d="M563.177264 529.968735a13.24154 13.24154 0 1 0 6.62077-11.4669 13.24154 13.24154 0 0 0-6.62077 11.4669" fill="#FFFFFF" p-id="44817"></path><path d="M318.345291 529.968735a13.24154 13.24154 0 1 0 6.62077-11.4669 13.24154 13.24154 0 0 0-6.62077 11.4669" fill="#FFFFFF" p-id="44818"></path><path d="M305.103752 556.451814a6.62077 6.62077 0 1 0 6.62077-6.620769 6.62077 6.62077 0 0 0-6.62077 6.620769" fill="#FFFFFF" p-id="44819"></path><path d="M444.037535 600.101117c0 13.24154-4.436598 13.24154-9.931155 13.241539s-9.931155 0-9.931154-13.241539c0-11.262134 4.436598-13.24154 9.931154-13.24154s9.931155 2.627831 9.931155 13.24154m30.476018 64.364803a111.734023 111.734023 0 0 1-43.000876 6.62077c-13.24154 5.28979-5.528684 11.02324 0 13.24154 15.425711 1.092086 48.290667 1.296852 56.242415-6.62077 9.931155-9.931155-3.412768-19.862309-13.241539-13.24154" fill="#DA8C7B" p-id="44820"></path><path d="M341.620369 414.821944c16.551925 9.931155 29.759337-6.62077 23.172694-9.931154a116.682536 116.682536 0 0 0-95.932907 0c-9.931155 9.931155 9.931155 13.24154 19.86231 9.931154a139.548082 139.548082 0 0 1 52.93203 0m200.261224 0c-16.551925 9.931155-29.759337-6.62077-23.172695-9.931154a116.682536 116.682536 0 0 1 95.932908 0c9.931155 9.931155-9.931155 13.24154-19.86231 9.931154a139.548082 139.548082 0 0 0-52.932031 0" fill="#1E1918" p-id="44821"></path><path d="M232.309411 536.930782a58.52897 58.52897 0 0 1-56.242416 66.17357 58.39246 58.39246 0 0 1-69.483955-66.17357c0-38.359512 13.24154-59.621056 62.863186-59.621056a58.017055 58.017055 0 0 1 62.863185 59.5528" fill="#FFE0C9" p-id="44822"></path><path d="M146.273531 351.65161a411.51156 411.51156 0 0 1 59.552801-33.069722l26.483079-16.551924 6.62077 59.5528a252.920233 252.920233 0 0 0-59.552801 135.657527l-33.069721-145.588681z" fill="#322A23" p-id="44823"></path><path d="M791.457312 520.378857c21.159161-7.917622 55.15033-100.335378 69.483956-145.588681l-168.727248-13.241539 9.931155 148.899065a188.487174 188.487174 0 0 0 89.346265 9.931155" fill="#312B24" p-id="44824"></path><path d="M801.388467 550.172321a78.118258 78.118258 0 0 1-92.65665 79.415111c-34.70785 0-33.069721-40.953215-33.069721-79.415111s28.155336-52.932031 62.863186-52.93203 62.863186 14.572519 62.863185 52.93203" fill="#FFE0C9" p-id="44825"></path><path d="M311.724522 47.266836C383.017244-24.196525 528.981329 2.047661 592.936601 23.991759c82.725495-36.277723 138.967911 29.895847 162.07235 56.344799a224.355365 224.355365 0 0 0 62.931441 56.276543c66.173571 23.138567 72.79434 49.621646 62.863185 43.000876a32.387168 32.387168 0 0 0-26.483079 0 174.631336 174.631336 0 0 1 59.552801 112.621343 108.628404 108.628404 0 0 1-46.243006 122.279475c0-13.207412-9.931155-9.931155-9.931155-13.207412-3.412768 23.138567-23.172694 29.759337-23.172694 26.448952-13.24154-39.690491-36.380106-19.862309-33.069721-19.862309 0 15.869371-6.62077 17.64401-9.931155 16.551924-6.62077-16.551925-39.690491-13.24154-39.690491-16.551924-71.463361 5.28979-80.507196-35.288021-76.104726-56.242416-15.903499 23.889376-52.932031 20.954395-69.483955 16.551924 5.28979-23.889376-17.64401-31.977636-29.759337-33.103849a22.285375 22.285375 0 0 1-6.62077 23.172695c-23.138567-33.069721-125.726371-43.000876-125.726371-39.690492a47.027942 47.027942 0 0 1 26.483079 39.690492 154.973793 154.973793 0 0 0-56.242415-3.412768c-68.83553 7.951749-103.67989-23.172694-112.621343-39.690492a105.795806 105.795806 0 0 0 16.415414 56.344799c-82.247708 17.336861-112.621342-13.070901-120.197687-39.690491l1.228596 9.897027c-21.159161-2.661959-39.690491 34.12768-46.311261 52.932031a129.207395 129.207395 0 0 1 6.62077-165.416863 98.970271 98.970271 0 0 1-52.932031 3.310385c26.483079-6.62077 39.690491-46.311261 46.311261-62.863185 18.940862-40.270662 74.603107-51.737562 108.253-52.897904a63.579867 63.579867 0 0 1-41.942919-23.206822c11.02324 2.184171 44.980282-3.958811 92.65665-46.311261" fill="#40342B" p-id="44826"></path></svg>